<svg width="20" height="17" viewBox="0 0 20 17" fill="none" xmlns="http://www.w3.org/2000/svg">
<path fill-rule="evenodd" clip-rule="evenodd" d="M12.6712 0.572722C13.1201 0.494381 13.6229 0.468267 14.0965 0.55021C14.9402 0.695429 15.7219 1.09467 16.341 1.69652C16.744 1.70552 17.1407 1.62448 17.4916 1.50922C17.8305 1.39626 18.156 1.24493 18.4618 1.05808L18.4698 1.05268C18.597 0.96628 18.7497 0.927379 18.9019 0.942567C19.054 0.957755 19.1964 1.0261 19.3048 1.13601C19.4131 1.24592 19.4809 1.39065 19.4965 1.54565C19.5122 1.70064 19.4747 1.85639 19.3906 1.98647C19.2076 2.27012 18.9523 2.77619 18.6668 3.34349L18.5299 3.61453C18.3664 3.9387 18.1985 4.26648 18.0421 4.54742C17.944 4.72392 17.8388 4.90311 17.7328 5.05799V5.30472C17.7437 6.78028 17.466 8.24326 16.9161 9.6083C16.3661 10.9733 15.5549 12.2131 14.5297 13.2552C13.5045 14.2973 12.2859 15.1209 10.945 15.6779C9.60406 16.2349 8.1677 16.5142 6.71973 16.4994C4.62129 16.5024 2.56686 15.8863 0.804506 14.7255C0.67799 14.6427 0.582879 14.5185 0.534795 14.3733C0.48671 14.2281 0.488511 14.0705 0.539902 13.9265C0.591292 13.7825 0.689217 13.6606 0.817592 13.5808C0.945967 13.501 1.09716 13.468 1.24634 13.4874C1.51144 13.5204 1.77801 13.5369 2.04605 13.5369C3.00096 13.5333 3.94385 13.3195 4.81014 12.9101C4.26748 12.6586 3.78217 12.2946 3.3851 11.8415C2.98802 11.3883 2.68788 10.8559 2.50379 10.2781C2.46871 10.1675 2.46223 10.0495 2.48499 9.93561C2.50774 9.82171 2.55896 9.71573 2.63368 9.62791L2.64252 9.61891C2.19416 9.2117 1.83479 8.71301 1.58772 8.15517C1.34065 7.59733 1.2114 6.99281 1.20834 6.38079V6.33307C1.20827 6.18481 1.25609 6.04065 1.3444 5.92282C1.43271 5.805 1.55662 5.72007 1.697 5.68112C1.39791 5.07298 1.24266 4.40193 1.24369 3.72169C1.24318 2.95013 1.44123 2.19193 1.81807 1.52272C1.8716 1.42773 1.94702 1.34743 2.0378 1.28875C2.12858 1.23007 2.23201 1.19478 2.33916 1.18592C2.44631 1.17706 2.55397 1.19489 2.65285 1.23788C2.75173 1.28087 2.83886 1.34772 2.90674 1.43268C4.45301 3.37243 6.66716 4.63809 9.09767 4.97155C9.07656 4.16129 9.27715 3.36103 9.67698 2.66033C10.0768 1.95963 10.6601 1.38614 11.3616 1.00405C11.7168 0.811348 12.1869 0.657367 12.6712 0.572722ZM2.70349 7.36952C2.87509 7.86164 3.16913 8.29994 3.55683 8.64152C3.94454 8.98309 4.41263 9.21624 4.9153 9.31815C5.06012 9.34755 5.19116 9.42539 5.28762 9.53933C5.38408 9.65327 5.44043 9.79677 5.44774 9.94706C5.45505 10.0974 5.41289 10.2458 5.32796 10.3689C5.24303 10.492 5.12018 10.5827 4.97892 10.6265C4.73798 10.701 4.49232 10.7529 4.24195 10.7823C4.51354 11.1391 4.86005 11.4294 5.25608 11.632C5.6521 11.8346 6.0876 11.9442 6.53063 11.9529C6.66729 11.9556 6.79982 12.0012 6.91005 12.0836C7.02027 12.1659 7.10281 12.281 7.14636 12.413C7.1899 12.5451 7.19232 12.6876 7.15328 12.8211C7.11424 12.9546 7.03565 13.0725 6.92828 13.1587C6.00637 13.8967 4.93575 14.4179 3.79305 14.685C4.73926 14.9939 5.72702 15.1504 6.72062 15.1487H6.72857C8.00106 15.1623 9.26345 14.9173 10.442 14.4282C11.6206 13.939 12.6916 13.2154 13.5927 12.2997C14.4938 11.384 15.2068 10.2946 15.69 9.09493C16.1733 7.8953 16.4171 6.60957 16.4073 5.31283V4.83107C16.4072 4.66709 16.4656 4.50866 16.5717 4.38534C16.6335 4.3142 16.7396 4.15031 16.8898 3.88107C17.0312 3.62714 17.1885 3.32098 17.3519 2.9977L17.3811 2.93827C16.9195 3.044 16.4442 3.07349 15.9734 3.02562C15.8142 3.00795 15.6667 2.93214 15.5581 2.81221C15.1137 2.32116 14.522 1.99431 13.8756 1.88291C13.5497 1.8356 13.2183 1.84321 12.8948 1.90543C12.5794 1.95539 12.2731 2.05344 11.9864 2.19628C11.4081 2.51109 10.9488 3.01258 10.6805 3.62209C10.4121 4.23159 10.3499 4.91463 10.5036 5.56406C10.5278 5.66618 10.5282 5.77264 10.505 5.87498C10.4817 5.97732 10.4353 6.07272 10.3695 6.15359C10.3037 6.23446 10.2203 6.29857 10.1259 6.34082C10.0315 6.38308 9.92876 6.40232 9.8258 6.397C7.11103 6.25621 4.54452 5.09216 2.62485 3.13098C2.58751 3.32587 2.56886 3.52401 2.56918 3.72259V3.72439C2.56818 4.22032 2.68755 4.70881 2.91666 5.14636C3.14576 5.5839 3.47749 5.95693 3.8823 6.23221C4.00117 6.31375 4.09092 6.43234 4.13807 6.57023C4.18523 6.70812 4.18726 6.85786 4.14387 6.99703C4.10047 7.13619 4.01398 7.25727 3.89736 7.34212C3.78074 7.42697 3.64028 7.47102 3.49702 7.46767C3.23041 7.4591 2.96512 7.42595 2.70438 7.36862" fill="url(#paint0_linear_255_2875)"/>
<defs>
<linearGradient id="paint0_linear_255_2875" x1="10" y1="0.5" x2="10" y2="16.5" gradientUnits="userSpaceOnUse">
<stop stop-color="#25D2A4"/>
<stop offset="1" stop-color="#009FE1"/>
</linearGradient>
</defs>
</svg>
