<svg width="145" height="32" viewBox="0 0 145 32" fill="none" xmlns="http://www.w3.org/2000/svg">
<path d="M16.7773 23.8726C16.7773 23.3521 16.6973 22.8849 16.5371 22.4712C16.3903 22.0441 16.11 21.6571 15.6963 21.3101C15.2826 20.9497 14.702 20.596 13.9546 20.249C13.2072 19.902 12.2396 19.5417 11.0518 19.168C9.73047 18.7409 8.47591 18.2604 7.28809 17.7266C6.11361 17.1927 5.07259 16.5721 4.16504 15.8647C3.27083 15.144 2.56348 14.3099 2.04297 13.3623C1.53581 12.4147 1.28223 11.3136 1.28223 10.0591C1.28223 8.84456 1.54915 7.74349 2.08301 6.75586C2.61686 5.75488 3.36426 4.90072 4.3252 4.19336C5.28613 3.47266 6.42057 2.91878 7.72852 2.53174C9.0498 2.14469 10.4979 1.95117 12.0728 1.95117C14.2215 1.95117 16.0967 2.33822 17.6982 3.1123C19.2998 3.88639 20.541 4.94743 21.4219 6.29541C22.3161 7.64339 22.7632 9.1849 22.7632 10.9199H16.7974C16.7974 10.0658 16.6172 9.31836 16.2568 8.67773C15.9098 8.02376 15.376 7.50993 14.6553 7.13623C13.9479 6.76253 13.0537 6.57568 11.9727 6.57568C10.9316 6.57568 10.0641 6.73584 9.37012 7.05615C8.67611 7.36312 8.1556 7.78353 7.80859 8.31738C7.46159 8.83789 7.28809 9.42513 7.28809 10.0791C7.28809 10.5729 7.4082 11.02 7.64844 11.4204C7.90202 11.8208 8.27572 12.1945 8.76953 12.5415C9.26335 12.8885 9.87061 13.2155 10.5913 13.5225C11.312 13.8294 12.1462 14.1297 13.0938 14.4233C14.682 14.9038 16.0767 15.4443 17.2778 16.0449C18.4924 16.6455 19.5067 17.3195 20.3208 18.0669C21.1349 18.8143 21.7489 19.6618 22.1626 20.6094C22.5763 21.557 22.7832 22.6313 22.7832 23.8325C22.7832 25.1004 22.5363 26.2349 22.0425 27.2358C21.5487 28.2368 20.8346 29.0843 19.9004 29.7783C18.9661 30.4723 17.8517 30.9995 16.5571 31.3599C15.2625 31.7202 13.8145 31.9004 12.2129 31.9004C10.7715 31.9004 9.3501 31.7135 7.94873 31.3398C6.54736 30.9528 5.27279 30.3722 4.125 29.5981C2.99056 28.8241 2.08301 27.8364 1.40234 26.6353C0.72168 25.4341 0.381348 24.0127 0.381348 22.3711H6.40723C6.40723 23.2786 6.54736 24.0461 6.82764 24.6733C7.10791 25.3006 7.50163 25.8078 8.00879 26.1948C8.5293 26.5819 9.14323 26.8621 9.85059 27.0356C10.5713 27.2091 11.3587 27.2959 12.2129 27.2959C13.2539 27.2959 14.1081 27.1491 14.7754 26.8555C15.4561 26.5618 15.9565 26.1548 16.2769 25.6343C16.6105 25.1138 16.7773 24.5265 16.7773 23.8726ZM25.5859 20.8896V20.4692C25.5859 18.881 25.8128 17.4196 26.2666 16.085C26.7204 14.737 27.381 13.5692 28.2485 12.5815C29.116 11.5939 30.1838 10.8265 31.4517 10.2793C32.7196 9.71875 34.1743 9.43848 35.8159 9.43848C37.4575 9.43848 38.9189 9.71875 40.2002 10.2793C41.4814 10.8265 42.5558 11.5939 43.4233 12.5815C44.3042 13.5692 44.9715 14.737 45.4253 16.085C45.8791 17.4196 46.106 18.881 46.106 20.4692V20.8896C46.106 22.4645 45.8791 23.9259 45.4253 25.2739C44.9715 26.6086 44.3042 27.7764 43.4233 28.7773C42.5558 29.765 41.4881 30.5324 40.2202 31.0796C38.9523 31.6268 37.4976 31.9004 35.856 31.9004C34.2144 31.9004 32.7529 31.6268 31.4717 31.0796C30.2038 30.5324 29.1294 29.765 28.2485 28.7773C27.381 27.7764 26.7204 26.6086 26.2666 25.2739C25.8128 23.9259 25.5859 22.4645 25.5859 20.8896ZM31.3516 20.4692V20.8896C31.3516 21.7972 31.4316 22.6447 31.5918 23.4321C31.752 24.2196 32.0055 24.9136 32.3525 25.5142C32.7129 26.1014 33.18 26.5618 33.7539 26.8955C34.3278 27.2292 35.0285 27.396 35.856 27.396C36.6567 27.396 37.3441 27.2292 37.918 26.8955C38.4919 26.5618 38.9523 26.1014 39.2993 25.5142C39.6463 24.9136 39.8999 24.2196 40.0601 23.4321C40.2336 22.6447 40.3203 21.7972 40.3203 20.8896V20.4692C40.3203 19.5884 40.2336 18.7609 40.0601 17.9868C39.8999 17.1994 39.6396 16.5054 39.2793 15.9048C38.9323 15.2909 38.4718 14.8104 37.8979 14.4634C37.3241 14.1164 36.63 13.9429 35.8159 13.9429C35.0018 13.9429 34.3078 14.1164 33.7339 14.4634C33.1733 14.8104 32.7129 15.2909 32.3525 15.9048C32.0055 16.5054 31.752 17.1994 31.5918 17.9868C31.4316 18.7609 31.3516 19.5884 31.3516 20.4692ZM56.9966 31.5H51.1909V7.91699C51.1909 6.27539 51.5112 4.89404 52.1519 3.77295C52.8058 2.63851 53.7201 1.78434 54.8945 1.21045C56.0824 0.62321 57.4904 0.32959 59.1187 0.32959C59.6525 0.32959 60.1663 0.369629 60.6602 0.449707C61.154 0.516439 61.6344 0.60319 62.1016 0.709961L62.0415 5.0542C61.7879 4.98747 61.521 4.94076 61.2407 4.91406C60.9604 4.88737 60.6335 4.87402 60.2598 4.87402C59.5658 4.87402 58.9718 4.99414 58.478 5.23438C57.9976 5.46126 57.6305 5.8016 57.377 6.25537C57.1234 6.70915 56.9966 7.26302 56.9966 7.91699V31.5ZM61.3208 9.83887V13.9229H47.9678V9.83887H61.3208ZM74.9541 9.83887V13.9229H62.3418V9.83887H74.9541ZM65.4648 4.49365H71.2305V24.9736C71.2305 25.6009 71.3105 26.0814 71.4707 26.415C71.6442 26.7487 71.8978 26.9823 72.2314 27.1157C72.5651 27.2358 72.9855 27.2959 73.4927 27.2959C73.853 27.2959 74.1733 27.2826 74.4536 27.2559C74.7472 27.2158 74.9941 27.1758 75.1943 27.1357L75.2144 31.3799C74.7205 31.54 74.1867 31.6668 73.6128 31.7603C73.0389 31.8537 72.4049 31.9004 71.7109 31.9004C70.443 31.9004 69.3353 31.6935 68.3877 31.2798C67.4535 30.8527 66.7327 30.172 66.2256 29.2378C65.7184 28.3035 65.4648 27.0757 65.4648 25.5542V4.49365Z" fill="url(#paint0_linear_241_1561)"/>
<path d="M90.0088 18.7075H82.5215L82.4814 14.5835H88.7676C89.8753 14.5835 90.7829 14.4434 91.4902 14.1631C92.1976 13.8695 92.7248 13.4491 93.0718 12.9019C93.4321 12.3413 93.6123 11.6606 93.6123 10.8599C93.6123 9.95231 93.4388 9.21826 93.0918 8.65771C92.7581 8.09717 92.231 7.6901 91.5103 7.43652C90.8029 7.18294 89.8887 7.05615 88.7676 7.05615H84.6035V31.5H78.5977V2.35156H88.7676C90.4626 2.35156 91.9774 2.51172 93.312 2.83203C94.66 3.15234 95.8011 3.63949 96.7354 4.29346C97.6696 4.94743 98.3836 5.7749 98.8774 6.77588C99.3713 7.76351 99.6182 8.93799 99.6182 10.2993C99.6182 11.5005 99.3446 12.6082 98.7974 13.6226C98.2635 14.6369 97.416 15.4644 96.2549 16.105C95.1071 16.7456 93.6056 17.0993 91.7505 17.166L90.0088 18.7075ZM89.7485 31.5H80.8799L83.2222 26.8154H89.7485C90.8029 26.8154 91.6637 26.6486 92.3311 26.3149C92.9984 25.9679 93.4922 25.5008 93.8125 24.9136C94.1328 24.3263 94.293 23.6523 94.293 22.8916C94.293 22.0374 94.1462 21.2967 93.8525 20.6694C93.5723 20.0422 93.1185 19.5617 92.4912 19.228C91.8639 18.881 91.0365 18.7075 90.0088 18.7075H84.2231L84.2632 14.5835H91.4702L92.8516 16.2051C94.6266 16.1784 96.0547 16.492 97.1357 17.146C98.2301 17.7866 99.0243 18.6208 99.5181 19.6484C100.025 20.6761 100.279 21.7772 100.279 22.9517C100.279 24.8201 99.8717 26.395 99.0576 27.6763C98.2435 28.9442 97.049 29.8984 95.4741 30.5391C93.9126 31.1797 92.0041 31.5 89.7485 31.5ZM110.509 9.83887V31.5H104.723V9.83887H110.509ZM104.363 4.19336C104.363 3.35254 104.656 2.65853 105.244 2.11133C105.831 1.56413 106.618 1.29053 107.606 1.29053C108.58 1.29053 109.361 1.56413 109.948 2.11133C110.549 2.65853 110.849 3.35254 110.849 4.19336C110.849 5.03418 110.549 5.72819 109.948 6.27539C109.361 6.82259 108.58 7.09619 107.606 7.09619C106.618 7.09619 105.831 6.82259 105.244 6.27539C104.656 5.72819 104.363 5.03418 104.363 4.19336ZM121.359 0.75V31.5H115.574V0.75H121.359ZM138.917 26.7754V0.75H144.722V31.5H139.497L138.917 26.7754ZM125.223 20.9297V20.5093C125.223 18.8543 125.41 17.3529 125.784 16.0049C126.157 14.6436 126.705 13.4757 127.425 12.5015C128.146 11.5272 129.034 10.7731 130.088 10.2393C131.142 9.7054 132.343 9.43848 133.691 9.43848C134.959 9.43848 136.067 9.7054 137.015 10.2393C137.976 10.7731 138.79 11.5339 139.457 12.5215C140.138 13.4958 140.685 14.6502 141.099 15.9849C141.512 17.3062 141.813 18.7542 142 20.3291V21.25C141.813 22.7581 141.512 24.1595 141.099 25.4541C140.685 26.7487 140.138 27.8831 139.457 28.8574C138.79 29.8184 137.976 30.5658 137.015 31.0996C136.054 31.6335 134.933 31.9004 133.651 31.9004C132.303 31.9004 131.102 31.6268 130.048 31.0796C129.007 30.5324 128.126 29.765 127.405 28.7773C126.698 27.7897 126.157 26.6286 125.784 25.2939C125.41 23.9593 125.223 22.5046 125.223 20.9297ZM130.989 20.5093V20.9297C130.989 21.8239 131.056 22.658 131.189 23.4321C131.336 24.2062 131.569 24.8936 131.89 25.4941C132.223 26.0814 132.65 26.5418 133.171 26.8755C133.705 27.1958 134.352 27.356 135.113 27.356C136.1 27.356 136.915 27.1357 137.555 26.6953C138.196 26.2415 138.683 25.6209 139.017 24.8335C139.364 24.0461 139.564 23.1385 139.617 22.1108V19.4883C139.577 18.6475 139.457 17.8934 139.257 17.2261C139.07 16.5454 138.79 15.9648 138.416 15.4844C138.056 15.0039 137.602 14.6302 137.055 14.3633C136.521 14.0964 135.887 13.9629 135.153 13.9629C134.405 13.9629 133.765 14.1364 133.231 14.4834C132.697 14.8171 132.263 15.2775 131.93 15.8647C131.609 16.452 131.369 17.146 131.209 17.9468C131.062 18.7342 130.989 19.5884 130.989 20.5093Z" fill="black"/>
<defs>
<linearGradient id="paint0_linear_241_1561" x1="-1" y1="17.5" x2="73.8149" y2="41.0682" gradientUnits="userSpaceOnUse">
<stop stop-color="#25D2A4"/>
<stop offset="1" stop-color="#009FE1"/>
</linearGradient>
</defs>
</svg>
