<svg width="163" height="36" viewBox="0 0 163 36" fill="none" xmlns="http://www.w3.org/2000/svg">
<path d="M18.9453 26.4424C18.9453 25.8584 18.8555 25.3343 18.6758 24.8701C18.5111 24.391 18.1966 23.9567 17.7324 23.5674C17.2682 23.1631 16.6169 22.7663 15.7783 22.377C14.9398 21.9876 13.8542 21.5833 12.5215 21.1641C11.0391 20.6849 9.63151 20.1458 8.29883 19.5469C6.98112 18.9479 5.81315 18.2516 4.79492 17.458C3.79167 16.6494 2.99805 15.7135 2.41406 14.6504C1.84505 13.5872 1.56055 12.3519 1.56055 10.9443C1.56055 9.58171 1.86003 8.34635 2.45898 7.23828C3.05794 6.11523 3.89648 5.1569 4.97461 4.36328C6.05273 3.55469 7.32552 2.93327 8.79297 2.49902C10.2754 2.06478 11.9001 1.84766 13.667 1.84766C16.0778 1.84766 18.1816 2.2819 19.9785 3.15039C21.7754 4.01888 23.168 5.20931 24.1562 6.72168C25.1595 8.23405 25.6611 9.96354 25.6611 11.9102H18.9678C18.9678 10.9518 18.7656 10.1133 18.3613 9.39453C17.972 8.66081 17.373 8.08431 16.5645 7.66504C15.7708 7.24577 14.7676 7.03613 13.5547 7.03613C12.3867 7.03613 11.4134 7.21582 10.6348 7.5752C9.85612 7.9196 9.27214 8.39128 8.88281 8.99023C8.49349 9.57422 8.29883 10.2331 8.29883 10.9668C8.29883 11.5208 8.43359 12.0225 8.70312 12.4717C8.98763 12.9209 9.4069 13.3402 9.96094 13.7295C10.515 14.1188 11.1963 14.4857 12.0049 14.8301C12.8135 15.1745 13.7493 15.5114 14.8125 15.8408C16.5944 16.3799 18.1592 16.9863 19.5068 17.6602C20.8695 18.334 22.0075 19.0902 22.9209 19.9287C23.8343 20.7673 24.5231 21.7181 24.9873 22.7812C25.4515 23.8444 25.6836 25.0498 25.6836 26.3975C25.6836 27.82 25.4066 29.0928 24.8525 30.2158C24.2985 31.3389 23.4974 32.2897 22.4492 33.0684C21.401 33.847 20.1507 34.4385 18.6982 34.8428C17.2458 35.2471 15.6211 35.4492 13.8242 35.4492C12.207 35.4492 10.6123 35.2396 9.04004 34.8203C7.46777 34.3861 6.03776 33.7347 4.75 32.8662C3.47721 31.9977 2.45898 30.8896 1.69531 29.542C0.931641 28.1943 0.549805 26.5996 0.549805 24.7578H7.31055C7.31055 25.776 7.46777 26.637 7.78223 27.3408C8.09668 28.0446 8.53841 28.6136 9.10742 29.0479C9.69141 29.4821 10.3802 29.7965 11.1738 29.9912C11.9824 30.1859 12.8659 30.2832 13.8242 30.2832C14.9922 30.2832 15.9505 30.1185 16.6992 29.7891C17.4629 29.4596 18.0244 29.0029 18.3838 28.4189C18.7581 27.835 18.9453 27.1761 18.9453 26.4424ZM28.8281 23.0957V22.624C28.8281 20.8421 29.0827 19.2025 29.5918 17.7051C30.1009 16.1927 30.8421 14.8825 31.8154 13.7744C32.7887 12.6663 33.9867 11.8053 35.4092 11.1914C36.8317 10.5625 38.4639 10.248 40.3057 10.248C42.1475 10.248 43.7871 10.5625 45.2246 11.1914C46.6621 11.8053 47.8675 12.6663 48.8408 13.7744C49.8291 14.8825 50.5778 16.1927 51.0869 17.7051C51.596 19.2025 51.8506 20.8421 51.8506 22.624V23.0957C51.8506 24.8626 51.596 26.5023 51.0869 28.0146C50.5778 29.512 49.8291 30.8223 48.8408 31.9453C47.8675 33.0534 46.6696 33.9144 45.2471 34.5283C43.8245 35.1423 42.1924 35.4492 40.3506 35.4492C38.5088 35.4492 36.8691 35.1423 35.4316 34.5283C34.0091 33.9144 32.8037 33.0534 31.8154 31.9453C30.8421 30.8223 30.1009 29.512 29.5918 28.0146C29.0827 26.5023 28.8281 24.8626 28.8281 23.0957ZM35.2969 22.624V23.0957C35.2969 24.1139 35.3867 25.0648 35.5664 25.9482C35.7461 26.8317 36.0306 27.6104 36.4199 28.2842C36.8242 28.943 37.3483 29.4596 37.9922 29.834C38.6361 30.2083 39.4222 30.3955 40.3506 30.3955C41.249 30.3955 42.0202 30.2083 42.6641 29.834C43.3079 29.4596 43.8245 28.943 44.2139 28.2842C44.6032 27.6104 44.8877 26.8317 45.0674 25.9482C45.262 25.0648 45.3594 24.1139 45.3594 23.0957V22.624C45.3594 21.6357 45.262 20.7074 45.0674 19.8389C44.8877 18.9554 44.5957 18.1768 44.1914 17.5029C43.8021 16.8141 43.2855 16.2751 42.6416 15.8857C41.9977 15.4964 41.2191 15.3018 40.3057 15.3018C39.3923 15.3018 38.6136 15.4964 37.9697 15.8857C37.3408 16.2751 36.8242 16.8141 36.4199 17.5029C36.0306 18.1768 35.7461 18.9554 35.5664 19.8389C35.3867 20.7074 35.2969 21.6357 35.2969 22.624ZM64.0693 35H57.5557V8.54102C57.5557 6.69922 57.915 5.14941 58.6338 3.8916C59.3675 2.61882 60.3932 1.66048 61.7109 1.0166C63.0436 0.357747 64.6234 0.0283203 66.4502 0.0283203C67.0492 0.0283203 67.6257 0.0732422 68.1797 0.163086C68.7337 0.237956 69.2728 0.335286 69.7969 0.455078L69.7295 5.3291C69.445 5.25423 69.1455 5.20182 68.8311 5.17188C68.5166 5.14193 68.1497 5.12695 67.7305 5.12695C66.9518 5.12695 66.2855 5.26172 65.7314 5.53125C65.1924 5.78581 64.7806 6.16764 64.4961 6.67676C64.2116 7.18587 64.0693 7.80729 64.0693 8.54102V35ZM68.9209 10.6973V15.2793H53.9395V10.6973H68.9209ZM84.2168 10.6973V15.2793H70.0664V10.6973H84.2168ZM73.5703 4.7002H80.0391V27.6777C80.0391 28.3815 80.1289 28.9206 80.3086 29.2949C80.5033 29.6693 80.7878 29.9313 81.1621 30.0811C81.5365 30.2158 82.0081 30.2832 82.5771 30.2832C82.9814 30.2832 83.3408 30.2682 83.6553 30.2383C83.9847 30.1934 84.2617 30.1484 84.4863 30.1035L84.5088 34.8652C83.9548 35.0449 83.3558 35.1872 82.7119 35.292C82.068 35.3968 81.3568 35.4492 80.5781 35.4492C79.1556 35.4492 77.9128 35.2171 76.8496 34.7529C75.8014 34.2738 74.9928 33.5101 74.4238 32.4619C73.8548 31.4137 73.5703 30.0361 73.5703 28.3291V4.7002Z" fill="url(#paint0_linear_255_3165)"/>
<path d="M101.107 20.6475H92.707L92.6621 16.0205H99.7148C100.958 16.0205 101.976 15.8633 102.77 15.5488C103.563 15.2194 104.155 14.7477 104.544 14.1338C104.948 13.5049 105.15 12.7412 105.15 11.8428C105.15 10.8245 104.956 10.001 104.566 9.37207C104.192 8.74316 103.601 8.28646 102.792 8.00195C101.998 7.71745 100.973 7.5752 99.7148 7.5752H95.043V35H88.3047V2.29688H99.7148C101.617 2.29688 103.316 2.47656 104.813 2.83594C106.326 3.19531 107.606 3.74186 108.654 4.47559C109.702 5.20931 110.504 6.1377 111.058 7.26074C111.612 8.36882 111.889 9.68652 111.889 11.2139C111.889 12.5615 111.582 13.8044 110.968 14.9424C110.369 16.0804 109.418 17.0088 108.115 17.7275C106.827 18.4463 105.143 18.8431 103.062 18.918L101.107 20.6475ZM100.815 35H90.8652L93.4932 29.7441H100.815C101.998 29.7441 102.964 29.557 103.713 29.1826C104.462 28.7933 105.016 28.2692 105.375 27.6104C105.734 26.9515 105.914 26.1953 105.914 25.3418C105.914 24.3835 105.749 23.5524 105.42 22.8486C105.105 22.1449 104.596 21.6058 103.893 21.2314C103.189 20.8421 102.26 20.6475 101.107 20.6475H94.6162L94.6611 16.0205H102.747L104.297 17.8398C106.288 17.8099 107.891 18.1618 109.104 18.8955C110.331 19.6143 111.222 20.5501 111.776 21.7031C112.345 22.8561 112.63 24.0915 112.63 25.4092C112.63 27.5055 112.173 29.2725 111.26 30.71C110.346 32.1325 109.006 33.2031 107.239 33.9219C105.487 34.6406 103.346 35 100.815 35ZM124.107 10.6973V35H117.616V10.6973H124.107ZM117.212 4.36328C117.212 3.41992 117.541 2.64128 118.2 2.02734C118.859 1.41341 119.743 1.10645 120.851 1.10645C121.944 1.10645 122.82 1.41341 123.479 2.02734C124.152 2.64128 124.489 3.41992 124.489 4.36328C124.489 5.30664 124.152 6.08529 123.479 6.69922C122.82 7.31315 121.944 7.62012 120.851 7.62012C119.743 7.62012 118.859 7.31315 118.2 6.69922C117.541 6.08529 117.212 5.30664 117.212 4.36328ZM136.281 0.5V35H129.79V0.5H136.281ZM155.979 29.6992V0.5H162.493V35H156.631L155.979 29.6992ZM140.616 23.1406V22.6689C140.616 20.8122 140.826 19.1276 141.245 17.6152C141.664 16.0879 142.278 14.7777 143.087 13.6846C143.896 12.5915 144.891 11.7454 146.074 11.1465C147.257 10.5475 148.605 10.248 150.117 10.248C151.54 10.248 152.783 10.5475 153.846 11.1465C154.924 11.7454 155.837 12.599 156.586 13.707C157.35 14.8001 157.964 16.0954 158.428 17.5928C158.892 19.0752 159.229 20.6999 159.438 22.4668V23.5C159.229 25.1921 158.892 26.7643 158.428 28.2168C157.964 29.6693 157.35 30.9421 156.586 32.0352C155.837 33.1133 154.924 33.9518 153.846 34.5508C152.768 35.1497 151.51 35.4492 150.072 35.4492C148.56 35.4492 147.212 35.1423 146.029 34.5283C144.861 33.9144 143.873 33.0534 143.064 31.9453C142.271 30.8372 141.664 29.5345 141.245 28.0371C140.826 26.5397 140.616 24.9076 140.616 23.1406ZM147.085 22.6689V23.1406C147.085 24.1439 147.16 25.0798 147.31 25.9482C147.474 26.8167 147.736 27.5879 148.096 28.2617C148.47 28.9206 148.949 29.4372 149.533 29.8115C150.132 30.1709 150.858 30.3506 151.712 30.3506C152.82 30.3506 153.733 30.1035 154.452 29.6094C155.171 29.1003 155.717 28.404 156.092 27.5205C156.481 26.637 156.706 25.6188 156.766 24.4658V21.5234C156.721 20.5801 156.586 19.734 156.361 18.9854C156.152 18.2217 155.837 17.5703 155.418 17.0312C155.014 16.4922 154.505 16.0729 153.891 15.7734C153.292 15.474 152.58 15.3242 151.757 15.3242C150.918 15.3242 150.2 15.5189 149.601 15.9082C149.002 16.2826 148.515 16.7992 148.141 17.458C147.781 18.1169 147.512 18.8955 147.332 19.7939C147.167 20.6774 147.085 21.6357 147.085 22.6689Z" fill="white"/>
<defs>
<linearGradient id="paint0_linear_255_3165" x1="-1" y1="19" x2="83.3737" y2="45.6592" gradientUnits="userSpaceOnUse">
<stop stop-color="#25D2A4"/>
<stop offset="1" stop-color="#009FE1"/>
</linearGradient>
</defs>
</svg>
